<?xml version="1.0" encoding="utf-8"?>
<!-- Generator: Adobe Illustrator 16.0.0, SVG Export Plug-In . SVG Version: 6.00 Build 0)  -->
<!DOCTYPE svg PUBLIC "-//W3C//DTD SVG 1.1//EN" "http://www.w3.org/Graphics/SVG/1.1/DTD/svg11.dtd">
<svg version="1.1" id="Layer_1" xmlns="http://www.w3.org/2000/svg" xmlns:xlink="http://www.w3.org/1999/xlink" x="0px" y="0px"
	 width="294.415px" height="61.61px" viewBox="0 0 294.415 61.61" enable-background="new 0 0 294.415 61.61" xml:space="preserve">
<g>
	<path fill="#FFFFFF" d="M90.636,14.759l-9.578,12.771h-1.092l-9.368-12.812v21.381h-5.545V6.693h6.385l9.2,12.645l9.2-12.645h6.343
		v29.405h-5.545V14.759z"/>
	<path fill="#FFFFFF" d="M130.284,21.522c-0.084,7.604-4.747,15.207-15.081,15.207c-10.334,0-15.123-7.436-15.123-15.165
		s4.957-15.5,15.123-15.5C125.327,6.063,130.368,13.834,130.284,21.522z M105.542,21.648c0.126,4.831,2.73,9.998,9.662,9.998
		s9.536-5.209,9.62-10.04c0.084-4.957-2.688-10.502-9.62-10.502S105.416,16.691,105.542,21.648z"/>
	<path fill="#FFFFFF" d="M160.229,21.102c0.126,7.435-4.41,14.955-14.702,14.955c-3.612,0-7.939,0-11.552,0V6.651
		c3.612,0,7.939,0,11.552,0C155.608,6.651,160.103,13.834,160.229,21.102z M139.478,30.722h6.049c6.679,0,9.325-4.873,9.199-9.662
		c-0.126-4.579-2.814-9.158-9.199-9.158h-6.049V30.722z"/>
	<path fill="#FFFFFF" d="M166.776,6.651v27.263h16.551v2.143h-18.819V6.651H166.776z"/>
	<path fill="#FFFFFF" d="M211.006,36.057l-3.234-7.226h-17.56l-3.192,7.226h-2.437l13.19-29.406h2.479l13.19,29.406H211.006z
		 M206.889,26.731l-7.897-17.895l-7.897,17.895H206.889z"/>
	<path fill="#FFFFFF" d="M221.292,24.294L209.824,6.693V6.651h2.646l9.956,15.459l9.997-15.459h2.646v0.042l-11.51,17.601v11.763
		h-2.269V24.294z"/>
	<path fill="#FFFFFF" d="M241.409,20.22h17.223v2.059h-17.223v11.593h18.567v2.186h-20.794V6.651h20.29v2.143h-18.063V20.22z"/>
	<path fill="#FFFFFF" d="M288.453,36.057h-2.982l-10.166-11.132h-8.023v11.132h-2.269V6.651c4.327,0,8.611,0,12.938,0
		c6.385,0,9.619,4.579,9.661,9.158c0.042,4.789-3.108,8.99-9.535,8.99L288.453,36.057z M267.281,22.782h10.418
		c5.125,0,7.393-2.898,7.436-7.015c0.042-3.445-2.311-7.015-7.184-7.015h-10.67V22.782z"/>
</g>
<g opacity="0.6">
	<path fill="#FFFFFF" d="M65.744,50.449H73v0.918h-7.256v5.708h-0.972V44.453h8.48v0.973h-7.508V50.449z"/>
	<path fill="#FFFFFF" d="M85.457,57.057h-1.278l-4.357-4.771h-3.439v4.771H75.41V44.453c1.854,0,3.691,0,5.545,0
		c2.737,0,4.124,1.963,4.142,3.925c0.018,2.053-1.333,3.854-4.087,3.854L85.457,57.057z M76.382,51.367h4.465
		c2.197,0,3.169-1.242,3.187-3.007c0.018-1.477-0.99-3.007-3.079-3.007h-4.573V51.367z"/>
	<path fill="#FFFFFF" d="M97.103,57.057l-1.386-3.098H88.19l-1.368,3.098h-1.044l5.654-12.604h1.062l5.654,12.604H97.103z
		 M95.338,53.059l-3.385-7.67l-3.385,7.67H95.338z"/>
	<path fill="#FFFFFF" d="M110.567,45.858l-4.826,7.382h-0.324l-4.861-7.382v11.199h-0.972V44.453c0.468,0,0.684,0,1.152,0
		l4.825,7.347l4.771-7.347h1.188v12.604h-0.954V45.858z"/>
	<path fill="#FFFFFF" d="M115.243,50.268h7.383v0.883h-7.383v4.97h7.959v0.937h-8.913V44.453h8.696v0.919h-7.742V50.268z"/>
	<path fill="#FFFFFF" d="M133.3,44.453h0.54l3.854,11.523l3.907-11.523h1.044l-4.447,12.64h-1.044l-1.999-5.905L133.57,46.2
		l-1.585,4.951l-2.017,5.941h-1.044l-4.412-12.64h1.026l3.89,11.523L133.3,44.453z"/>
	<path fill="#FFFFFF" d="M156.503,50.773c-0.019,3.313-2.125,6.5-6.356,6.5s-6.355-3.205-6.355-6.536
		c0-3.385,2.106-6.482,6.355-6.482C154.396,44.254,156.521,47.37,156.503,50.773z M144.745,50.754
		c0.018,2.846,1.818,5.618,5.401,5.618c3.602,0,5.42-2.772,5.42-5.618c0-2.916-1.801-5.6-5.42-5.6S144.728,47.784,144.745,50.754z"
		/>
	<path fill="#FFFFFF" d="M168.868,57.057h-1.279l-4.356-4.771h-3.439v4.771h-0.973V44.453c1.854,0,3.691,0,5.546,0
		c2.737,0,4.123,1.963,4.142,3.925c0.018,2.053-1.333,3.854-4.087,3.854L168.868,57.057z M159.793,51.367h4.466
		c2.196,0,3.169-1.242,3.187-3.007c0.018-1.477-0.99-3.007-3.079-3.007h-4.573V51.367z"/>
	<path fill="#FFFFFF" d="M179.343,57.057h-1.225l-6.644-6.213v6.194h-0.973V44.453h0.973v5.744l6.122-5.744h1.17v0.091l-6.338,5.941
		l6.914,6.5V57.057z"/>
</g>
<g>
	<circle fill="#27A0DA" cx="32.159" cy="31.713" r="25.097"/>
</g>
<g>
	<g>
		<path fill="#FFFFFF" d="M29.852,44.986v-7.153c0-0.521,0.032-1.03,0.098-1.525c0.064-0.494,0.176-0.965,0.333-1.408
			c-0.288,0.366-0.625,0.691-1.015,0.978c-0.392,0.287-0.81,0.573-1.252,0.86l-6.178,3.598l-2.306-3.91l6.217-3.597
			c0.469-0.287,0.932-0.521,1.386-0.704c0.457-0.183,0.932-0.313,1.427-0.392c-0.496-0.051-0.971-0.18-1.427-0.39
			c-0.454-0.209-0.917-0.456-1.386-0.744l-6.217-3.635l2.268-3.91l6.216,3.675c0.442,0.286,0.865,0.58,1.27,0.878
			c0.404,0.301,0.75,0.633,1.037,0.998c-0.183-0.443-0.308-0.912-0.372-1.408c-0.066-0.496-0.098-1.004-0.098-1.525V18.44h4.615
			v7.154c0,0.547-0.034,1.076-0.098,1.583c-0.065,0.509-0.19,0.984-0.372,1.428c0.286-0.365,0.625-0.697,1.016-0.998
			c0.392-0.298,0.822-0.592,1.292-0.878l6.174-3.597l2.309,3.909l-6.217,3.558c-0.47,0.288-0.931,0.529-1.387,0.723
			c-0.456,0.196-0.931,0.333-1.426,0.411c0.884,0.158,1.824,0.522,2.813,1.095l6.217,3.636l-2.268,3.909l-6.215-3.636
			c-0.47-0.287-0.9-0.573-1.292-0.86c-0.391-0.286-0.743-0.611-1.054-0.978c0.338,0.835,0.508,1.8,0.508,2.895v7.192H29.852z"/>
	</g>
</g>
</svg>
