<?xml version="1.0" encoding="utf-8"?>
<!-- Generator: Adobe Illustrator 16.0.0, SVG Export Plug-In . SVG Version: 6.00 Build 0)  -->
<!DOCTYPE svg PUBLIC "-//W3C//DTD SVG 1.1//EN" "http://www.w3.org/Graphics/SVG/1.1/DTD/svg11.dtd">
<svg version="1.1" id="Layer_1" xmlns="http://www.w3.org/2000/svg" xmlns:xlink="http://www.w3.org/1999/xlink" x="0px" y="0px"
	 width="294.415px" height="73.546px" viewBox="0 0 294.415 73.546" enable-background="new 0 0 294.415 73.546"
	 xml:space="preserve">
<g>
	<path fill="#4D5867" d="M88.808,19.692l-9.578,12.771h-1.092L68.77,19.65v21.382h-5.545V11.626h6.385l9.2,12.645l9.2-12.645h6.343
		v29.405h-5.545V19.692z"/>
	<path fill="#4D5867" d="M128.456,26.455c-0.084,7.604-4.747,15.208-15.081,15.208c-10.334,0-15.123-7.436-15.123-15.166
		c0-7.729,4.957-15.5,15.123-15.5C123.499,10.997,128.54,18.768,128.456,26.455z M103.714,26.581
		c0.126,4.831,2.73,9.998,9.662,9.998s9.536-5.208,9.62-10.04c0.084-4.957-2.688-10.502-9.62-10.502S103.588,21.625,103.714,26.581z
		"/>
	<path fill="#4D5867" d="M158.4,26.035c0.126,7.435-4.41,14.955-14.702,14.955c-3.612,0-7.939,0-11.552,0V11.584
		c3.612,0,7.939,0,11.552,0C153.78,11.584,158.274,18.768,158.4,26.035z M137.649,35.655h6.049c6.679,0,9.325-4.873,9.199-9.662
		c-0.126-4.579-2.814-9.158-9.199-9.158h-6.049V35.655z"/>
	<path fill="#4D5867" d="M164.948,11.584v27.263h16.551v2.143H162.68V11.584H164.948z"/>
	<path fill="#4D5867" d="M209.178,40.99l-3.234-7.226h-17.56l-3.192,7.226h-2.437l13.19-29.405h2.479l13.19,29.405H209.178z
		 M205.061,31.664l-7.897-17.895l-7.897,17.895H205.061z"/>
	<path fill="#4D5867" d="M219.464,29.228l-11.468-17.601v-0.042h2.646l9.956,15.459l9.997-15.459h2.646v0.042l-11.51,17.601V40.99
		h-2.269V29.228z"/>
	<path fill="#4D5867" d="M239.581,25.153h17.223v2.059h-17.223v11.594h18.567v2.185h-20.794V11.584h20.29v2.143h-18.063V25.153z"/>
	<path fill="#4D5867" d="M286.625,40.99h-2.982l-10.166-11.132h-8.023V40.99h-2.269V11.584c4.327,0,8.611,0,12.938,0
		c6.385,0,9.619,4.579,9.661,9.158c0.042,4.789-3.108,8.99-9.535,8.99L286.625,40.99z M265.453,27.715h10.418
		c5.125,0,7.393-2.898,7.436-7.015c0.042-3.445-2.311-7.015-7.184-7.015h-10.67V27.715z"/>
</g>
<g>
	<path fill="#231F20" d="M63.916,55.381h7.256v0.918h-7.256v5.709h-0.972V49.385h8.48v0.973h-7.508V55.381z"/>
	<path fill="#231F20" d="M83.629,61.99h-1.278l-4.357-4.771h-3.439v4.771h-0.972V49.385c1.854,0,3.691,0,5.545,0
		c2.737,0,4.124,1.963,4.142,3.926c0.018,2.053-1.333,3.854-4.087,3.854L83.629,61.99z M74.554,56.299h4.465
		c2.197,0,3.169-1.242,3.187-3.006c0.018-1.477-0.99-3.008-3.079-3.008h-4.573V56.299z"/>
	<path fill="#231F20" d="M95.274,61.99l-1.386-3.097h-7.526l-1.368,3.097h-1.044l5.654-12.604h1.062l5.654,12.604H95.274z
		 M93.51,57.993l-3.385-7.67l-3.385,7.67H93.51z"/>
	<path fill="#231F20" d="M108.739,50.791l-4.826,7.382h-0.324l-4.861-7.382V61.99h-0.972V49.385c0.468,0,0.684,0,1.152,0
		l4.825,7.348l4.771-7.348h1.188V61.99h-0.954V50.791z"/>
	<path fill="#231F20" d="M113.415,55.202h7.383v0.883h-7.383v4.969h7.959v0.937h-8.913V49.385h8.696v0.919h-7.742V55.202z"/>
	<path fill="#231F20" d="M131.472,49.385h0.54l3.854,11.523l3.907-11.523h1.044l-4.447,12.641h-1.044l-1.999-5.906l-1.584-4.987
		l-1.585,4.952l-2.017,5.941h-1.044l-4.412-12.641h1.026l3.89,11.523L131.472,49.385z"/>
	<path fill="#231F20" d="M154.675,55.706c-0.019,3.313-2.125,6.5-6.356,6.5s-6.355-3.205-6.355-6.535
		c0-3.386,2.106-6.482,6.355-6.482C152.568,49.188,154.692,52.303,154.675,55.706z M142.917,55.688
		c0.018,2.845,1.818,5.617,5.401,5.617c3.602,0,5.42-2.772,5.42-5.617c0-2.917-1.801-5.6-5.42-5.6S142.899,52.717,142.917,55.688z"
		/>
	<path fill="#231F20" d="M167.04,61.99h-1.279l-4.356-4.771h-3.439v4.771h-0.973V49.385c1.854,0,3.691,0,5.546,0
		c2.737,0,4.123,1.963,4.142,3.926c0.018,2.053-1.333,3.854-4.087,3.854L167.04,61.99z M157.965,56.299h4.466
		c2.196,0,3.169-1.242,3.187-3.006c0.018-1.477-0.99-3.008-3.079-3.008h-4.573V56.299z"/>
	<path fill="#231F20" d="M177.515,61.99h-1.225l-6.644-6.212v6.193h-0.973V49.385h0.973v5.744l6.122-5.744h1.17v0.091l-6.338,5.942
		l6.914,6.5V61.99z"/>
</g>
<g>
	<circle fill="#27A0DA" cx="30.331" cy="36.647" r="25.097"/>
</g>
<g>
	<g>
		<path fill="#FFFFFF" d="M28.024,49.918v-7.152c0-0.521,0.032-1.031,0.098-1.525c0.064-0.495,0.176-0.965,0.333-1.408
			c-0.288,0.365-0.625,0.691-1.015,0.977c-0.392,0.287-0.81,0.574-1.252,0.86l-6.178,3.598l-2.306-3.909l6.217-3.598
			c0.469-0.286,0.932-0.521,1.386-0.703c0.457-0.183,0.932-0.312,1.427-0.392c-0.496-0.052-0.971-0.181-1.427-0.39
			c-0.454-0.209-0.917-0.456-1.386-0.744l-6.217-3.635l2.268-3.91l6.216,3.676c0.442,0.285,0.865,0.58,1.27,0.878
			c0.404,0.301,0.75,0.633,1.037,0.998c-0.183-0.443-0.308-0.912-0.372-1.407c-0.066-0.496-0.098-1.004-0.098-1.525v-7.232h4.615
			v7.154c0,0.547-0.034,1.076-0.098,1.583c-0.065,0.509-0.19,0.984-0.372,1.428c0.286-0.365,0.625-0.697,1.016-0.998
			c0.392-0.298,0.822-0.593,1.292-0.878l6.174-3.598l2.309,3.909l-6.217,3.558c-0.47,0.288-0.931,0.529-1.387,0.723
			c-0.456,0.196-0.931,0.333-1.426,0.411c0.884,0.157,1.824,0.522,2.813,1.095l6.217,3.637l-2.268,3.908l-6.215-3.636
			c-0.47-0.286-0.9-0.573-1.292-0.86c-0.391-0.285-0.743-0.611-1.054-0.977c0.338,0.834,0.508,1.799,0.508,2.894v7.192H28.024z"/>
	</g>
</g>
</svg>
