<?xml version="1.0" encoding="utf-8"?>
<!-- Generator: Adobe Illustrator 16.0.0, SVG Export Plug-In . SVG Version: 6.00 Build 0)  -->
<!DOCTYPE svg PUBLIC "-//W3C//DTD SVG 1.1//EN" "http://www.w3.org/Graphics/SVG/1.1/DTD/svg11.dtd">
<svg version="1.1" id="Layer_1" xmlns="http://www.w3.org/2000/svg" xmlns:xlink="http://www.w3.org/1999/xlink" x="0px" y="0px"
	 width="108.294px" height="84.92px" viewBox="0 0 108.294 84.92" enable-background="new 0 0 108.294 84.92" xml:space="preserve">
<g>
	<g>
		<path fill="#303A60" d="M9.5,31.941H3.944l2.013-8.538h23.276l-2.013,8.538h-4.832l2.658,29.64h0.161l16.995-29.64h-4.833
			l2.014-8.538h20.941l-1.934,8.538h-5.155L26.012,78.495H14.655L9.5,31.941z"/>
		<path fill="#303A60" d="M45.487,69.555h6.604l8.619-37.614h-6.605l2.013-8.538H78.67c20.296,0,26.338,12.564,26.338,24.083
			c0,17.478-11.679,30.606-30.123,30.606H43.474L45.487,69.555z M74.24,69.555c13.291,0,16.511-17.719,16.511-24.646
			c0-7.49-4.753-12.968-12.887-12.968h-3.302l-8.619,37.614H74.24z"/>
	</g>
	<g>
		<path fill="#3A7ABF" d="M64.83,10.956c0,4.636-3.756,8.392-8.384,8.392c-4.636,0-8.394-3.756-8.394-8.392
			c0-4.628,3.758-8.386,8.394-8.386C61.074,2.57,64.83,6.328,64.83,10.956z"/>
	</g>
</g>
</svg>
