<?xml version="1.0" standalone="no"?>
<!DOCTYPE svg PUBLIC "-//W3C//DTD SVG 20010904//EN"
 "http://www.w3.org/TR/2001/REC-SVG-20010904/DTD/svg10.dtd">
<svg version="1.0" xmlns="http://www.w3.org/2000/svg"
 width="16.000000pt" height="16.000000pt" viewBox="0 0 16.000000 16.000000"
 preserveAspectRatio="xMidYMid meet">
<metadata>
Created by potrace 1.11, written by Peter Selinger 2001-2013
</metadata>
<g transform="translate(0.000000,16.000000) scale(0.006154,-0.006154)"
fill="#000000" stroke="none">
<path d="M1090 2533 c-312 -47 -622 -230 -811 -478 -472 -618 -273 -1501 418
-1858 782 -404 1726 66 1858 923 128 830 -612 1544 -1465 1413z m318 -817 l-3
-245 25 24 c14 13 107 71 207 129 l182 105 60 -99 59 -98 -176 -98 c-97 -55
-183 -102 -192 -106 -8 -3 -28 -11 -45 -18 l-30 -11 55 -23 c72 -28 380 -205
380 -216 0 -8 -94 -174 -106 -189 -5 -6 -354 198 -396 231 l-37 29 10 -33 c5
-18 9 -129 9 -245 l0 -213 -116 0 -115 0 3 239 c2 158 0 237 -7 233 -5 -3 -23
-16 -40 -28 -16 -12 -91 -57 -165 -99 -74 -43 -149 -86 -166 -96 l-32 -19 -56
92 c-31 50 -55 96 -53 102 3 6 78 52 168 102 201 113 223 124 246 124 23 0 7
13 -37 31 -52 20 -380 209 -380 219 0 6 94 173 106 189 5 6 356 -201 388 -230
l31 -27 -3 244 -4 244 117 0 117 0 -4 -244z"/>
</g>
</svg>
